<?xml version="1.0" encoding="UTF-8"?>
<svg id="Layer_1" data-name="Layer 1" xmlns="http://www.w3.org/2000/svg" viewBox="0 0 834.23 293.99">
  <defs>
    <style>
      .cls-1, .cls-2, .cls-3 {
        fill: #231f20;
      }

      .cls-1, .cls-4, .cls-3 {
        isolation: isolate;
      }

      .cls-1, .cls-3 {
        font-family: MonumentGrotesk-Regular, 'Monument Grotesk';
        font-size: 412.68px;
      }

      .cls-3 {
        letter-spacing: -.01em;
      }

      .cls-5 {
        fill: none;
        stroke: #231f20;
        stroke-miterlimit: 10;
        stroke-width: 16.2px;
      }
    </style>
  </defs>
  <text class="cls-1" transform="translate(-14.11 288.96)"><tspan x="0" y="0">s</tspan></text>
  <text class="cls-3" transform="translate(182.76 288.96)"><tspan x="0" y="0">t</tspan></text>
  <g class="cls-4">
    <path class="cls-2" d="M516.05,188.21c0,4.43-.14,7.32-.4,8.67h-156.57c.54,22.84,5.64,39.77,15.31,50.78,9.67,11.02,24.11,16.52,43.32,16.52,17.6,0,31.2-3.76,40.8-11.28,9.6-7.52,15.68-19.14,18.24-34.86l35.87,2.82c-4.7,24.05-15.05,42.25-31.03,54.61-15.99,12.36-37.15,18.54-63.47,18.54-32.11,0-56.82-10.07-74.15-30.22-16.79-18.4-21.72-44.13-21.72-77.98,0-31.43,5.19-57.43,22.52-77.18,18.67-20.69,42.99-31.03,72.94-31.03,16.79,0,32.41,3.56,46.85,10.68,14.44,7.12,25.69,17.2,33.75,30.23,11.82,18.94,17.73,42.18,17.73,69.72ZM369.55,130.17c-6.04,10.61-9.34,22.84-9.87,36.67h117.88c-.27-6.04-1.38-12.52-3.33-19.45-1.95-6.92-4.53-12.66-7.76-17.23-9.94-14.91-26.06-22.37-48.36-22.37-11.28,0-21.16,1.98-29.62,5.94-8.46,3.96-14.78,9.44-18.94,16.42Z"/>
    <path class="cls-2" d="M742.94,0v288.96h-37.28v-30.23c-15.31,23.51-37.01,35.26-65.09,35.26s-50.91-9.77-68.51-29.32c-17.6-19.55-26.4-45.84-26.4-78.89s8.63-58.5,25.89-78.38c17.26-19.88,39.86-29.82,67.81-29.82s50.84,10.61,66.29,31.84V0h37.28ZM707.07,186.19c0-23.38-4.17-42.38-12.49-57.03-8.2-14.51-23.71-21.76-46.55-21.76s-37.62,6.38-47.15,19.14c-9.54,12.76-14.31,32.51-14.31,59.24s4.53,46.38,13.6,59.34c9.07,12.97,24.75,19.45,47.05,19.45,19.75,0,34.66-6.62,44.73-19.85,10.08-13.23,15.11-32.74,15.11-58.54Z"/>
    <path class="cls-2" d="M797.14,0h37.08v43.73h-37.08V0ZM797.14,82.62h37.08v206.34h-37.08V82.62Z"/>
  </g>
  <polyline class="cls-5" points="476.75 225.92 510.03 228.54 510.03 285.99 327.07 285.99 333.66 85.76 510.03 85.76 510.03 196.7"/>
  <polygon class="cls-2" points="473.36 91.3 504.43 91.3 504.43 129.6 469.11 91.3 473.36 91.3"/>
  <polygon class="cls-2" points="332.49 91.3 332.49 122.79 339.73 122.79 361.86 104.07 368.24 91.3 332.49 91.3"/>
  <polygon class="cls-2" points="331.06 247.54 331.06 282.61 365.92 281.18 335.54 245.5 331.06 247.54"/>
  <polygon class="cls-2" points="504.43 282.61 472.35 280 472.35 256.84 501 242.71 504.43 282.61"/>
</svg>