<?xml version="1.0" encoding="UTF-8"?>
<svg id="Layer_1" xmlns="http://www.w3.org/2000/svg" version="1.1" viewBox="0 0 2152.7 373.6">
  <!-- Generator: Adobe Illustrator 29.8.2, SVG Export Plug-In . SVG Version: 2.1.1 Build 3)  -->
  <defs>
    <style>
      .st0 {
        fill: #231f20;
      }

      .st1 {
        isolation: isolate;
      }

      .st2 {
        fill: #fff;
        stroke: #000;
      }

      .st2, .st3 {
        stroke-miterlimit: 10;
      }

      .st3 {
        fill: none;
        stroke: #231f20;
        stroke-width: 16.2px;
      }
    </style>
  </defs>
  <g class="st1">
    <g class="st1">
      <path class="st0" d="M0,221.3l33.9-3.2c0,14.4,4.7,25.7,14.1,34.1,9.4,8.3,22.3,12.5,38.7,12.5,33.9,0,50.8-11.1,50.8-33.5-.8-8.7-5.6-15.2-14.3-19.5-5.2-2.6-17.1-6-35.7-10.5l-16.5-3.8c-9.5-2.6-17.1-4.8-22.7-6.7-5.6-1.9-11.4-4.4-17.5-7.6-6.1-3.2-10.8-6.6-14-10.4-3.2-3.8-6-8.6-8.3-14.4-2.3-5.8-3.6-12.7-4-20.5,0-13.2,3.7-24.4,11.2-33.8,7.5-9.3,16.8-16.1,28-20.3,11.2-4.2,23.6-6.2,37.2-6.2,25.1,0,45.3,5.6,60.7,16.7,15.3,11.2,23.8,28.1,25.6,51l-34.7,5.4c-.3-14-4.9-24.8-13.8-32.3-8.9-7.6-21.7-11.4-38.2-11.4s-20.7,2.6-28.9,7.8c-8.3,5.2-12.4,12.1-12.4,20.7.9,8.3,5,14.4,12.2,18.1,7.2,3.8,19.6,7.7,37.4,11.7l5,1.2c19.2,3.9,33.6,7.7,43.2,11.5,9.6,3.8,17.8,9.5,24.7,17.3,7.3,8.1,10.9,19.3,10.9,33.9,0,23-8.1,39.6-24.4,50-16.3,9.9-36.5,14.9-60.7,14.9s-31.4-2.5-44.2-7.6c-12.8-5-23.2-13.1-31.2-24.3C4,251,0,237.4,0,221.3Z"/>
    </g>
  </g>
  <g class="st1">
    <g class="st1">
      <path class="st0" d="M221.7,242.9V113.7h-29.8v-31h29.8V25.2h36.7v57.4h42.1v31h-42.1v127.8c0,6.4,1.5,10.8,4.4,12.9,3,2.2,8.6,3.2,16.9,3.2s10.2-.7,18.9-2l1,33.5c-10.1,1.3-17.7,2-22.8,2-19.2,0-33.2-3.9-42-11.6-8.8-7.7-13.2-19.9-13.2-36.6Z"/>
    </g>
  </g>
  <g class="st1">
    <g class="st1">
      <path class="st0" d="M516.1,188.2c0,4.4-.1,7.3-.4,8.7h-156.6c.5,22.8,5.6,39.8,15.3,50.8,9.7,11,24.1,16.5,43.3,16.5s31.2-3.8,40.8-11.3c9.6-7.5,15.7-19.1,18.2-34.9l35.9,2.8c-4.7,24-15,42.3-31,54.6-16,12.4-37.1,18.5-63.5,18.5s-56.8-10.1-74.2-30.2c-16.8-18.4-20.6-45.1-20.6-79s4.1-56.4,21.4-76.2c18.7-20.7,43-31,72.9-31s32.4,3.6,46.9,10.7c14.4,7.1,25.7,17.2,33.8,30.2,11.8,18.9,17.7,42.2,17.7,69.7ZM369.6,130.2c-6,10.6-9.3,22.8-9.9,36.7h117.9c-.3-6-1.4-12.5-3.3-19.4-1.9-6.9-4.5-12.7-7.8-17.2-9.9-14.9-26.1-22.4-48.4-22.4s-21.2,2-29.6,5.9c-8.5,4-14.8,9.4-18.9,16.4Z"/>
      <path class="st0" d="M743,0v289h-37.3v-30.2c-15.3,23.5-37,35.3-65.1,35.3s-50.9-9.8-68.5-29.3c-17.6-19.5-26.4-45.8-26.4-78.9s8.6-58.5,25.9-78.4c17.3-19.9,39.9-29.8,67.8-29.8s50.8,10.6,66.3,31.8V0h37.3ZM707.1,186.2c0-23.4-4.2-42.4-12.5-57-8.2-14.5-23.7-21.8-46.5-21.8s-37.6,6.4-47.2,19.1c-9.5,12.8-14.3,32.5-14.3,59.2s4.5,46.4,13.6,59.3c9.1,13,24.8,19.4,47.1,19.4s34.7-6.6,44.7-19.8c10.1-13.2,15.1-32.7,15.1-58.5Z"/>
      <path class="st0" d="M797.2,0h37.1v43.7h-37.1V0ZM797.2,82.7h37.1v206.3h-37.1V82.7Z"/>
      <path class="st0" d="M967.9,221.3l33.9-3.2c0,14.4,4.7,25.7,14.1,34.1,9.4,8.3,22.3,12.5,38.7,12.5,33.9,0,50.8-11.1,50.8-33.5-.8-8.7-5.6-15.2-14.3-19.5-5.2-2.6-17.1-6-35.7-10.5l-16.5-3.8c-9.5-2.6-17.1-4.8-22.7-6.7-5.6-1.9-11.4-4.4-17.5-7.6-6.1-3.2-10.8-6.6-14-10.4-3.2-3.8-6-8.6-8.3-14.4-2.3-5.8-3.6-12.7-4-20.5,0-13.2,3.7-24.4,11.2-33.8,7.5-9.3,16.8-16.1,28-20.3,11.2-4.2,23.6-6.2,37.2-6.2,25.1,0,45.3,5.6,60.7,16.7,15.3,11.2,23.8,28.1,25.6,51l-34.7,5.4c-.3-14-4.9-24.8-13.8-32.3-8.9-7.6-21.7-11.4-38.2-11.4s-20.7,2.6-28.9,7.8c-8.3,5.2-12.4,12.1-12.4,20.7.9,8.3,5,14.4,12.2,18.1,7.2,3.8,19.6,7.7,37.4,11.7l5,1.2c19.2,3.9,33.6,7.7,43.2,11.5,9.6,3.8,17.8,9.5,24.7,17.3,7.3,8.1,10.9,19.3,10.9,33.9,0,23-8.1,39.6-24.4,50-16.3,9.9-36.5,14.9-60.7,14.9s-31.4-2.5-44.2-7.6c-12.8-5-23.2-13.1-31.2-24.3-8-11.1-12-24.8-12-40.9Z"/>
      <path class="st0" d="M1358.2,82.7v206.3h-37.3v-31c-5.5,11.6-13.8,20.5-24.8,26.7-11,6.2-23.9,9.4-38.7,9.4-26.5,0-46.8-7.7-61.1-23.2-7.1-7.5-11.7-16.1-13.6-25.8-1.9-9.7-2.9-22.7-2.9-39.1v-123.3h38.3v121.3c0,13.6.6,23.3,1.9,29.3,1.3,6,4.7,11.9,10.2,17.8,4.8,4.8,10,8,15.6,9.6,5.6,1.5,12.9,2.3,21.9,2.3,35.5,0,53.2-21.5,53.2-64.5v-115.9h37.3Z"/>
      <path class="st0" d="M1609.7,185.8c0,32.4-8.6,58.5-25.9,78.4-17.3,19.9-39.9,29.8-67.8,29.8s-51.5-10.6-66.5-31.8v109.4h-37.1V82.7h37.1v30.2c14.9-23.5,36.7-35.3,65.3-35.3s50.6,9.8,68.3,29.4c17.7,19.6,26.6,45.9,26.6,78.8ZM1554.5,245.1c9.5-12.8,14.3-32.5,14.3-59.2s-4.5-46.5-13.6-59.4c-9.1-12.9-24.8-19.3-47.1-19.3s-34.7,6.6-44.7,19.8c-10.1,13.2-15.1,32.7-15.1,58.5s4.2,42.4,12.5,57c8.2,14.5,23.7,21.8,46.5,21.8s37.6-6.4,47.2-19.1Z"/>
      <path class="st0" d="M1849.3,185.8c0,32.4-8.6,58.5-25.9,78.4-17.3,19.9-39.9,29.8-67.8,29.8s-51.5-10.6-66.5-31.8v109.4h-37.1V82.7h37.1v30.2c14.9-23.5,36.7-35.3,65.3-35.3s50.6,9.8,68.3,29.4c17.7,19.6,26.6,45.9,26.6,78.8ZM1794.1,245.1c9.5-12.8,14.3-32.5,14.3-59.2s-4.5-46.5-13.6-59.4c-9.1-12.9-24.8-19.3-47.1-19.3s-34.7,6.6-44.7,19.8c-10.1,13.2-15.1,32.7-15.1,58.5s4.2,42.4,12.5,57c8.2,14.5,23.7,21.8,46.5,21.8s37.6-6.4,47.2-19.1Z"/>
      <path class="st0" d="M1891.6,0h37.1v289h-37.1V0Z"/>
    </g>
  </g>
  <g class="st1">
    <g class="st1">
      <path class="st0" d="M2152.7,82.7l-84.2,225.3c-9.1,24.3-18,41.3-26.6,51.1-8.6,9.7-19.8,14.6-33.7,14.6s-22-1.4-31.4-4.2l1-34.7c9.5,3.1,18.1,4.6,25.6,4.6,7.7-.9,13.3-4.3,16.9-10,3.6-5.7,9.9-19.7,18.9-42l-80.6-204.7h39.7l39.3,111.4,5.2,16.9,12.9,37.9,18.5-54.8,39.5-111.4h38.9Z"/>
    </g>
  </g>
  <polyline class="st3" points="476.8 225.9 510 228.5 510 286 327.1 286 333.7 85.8 510 85.8 510 196.7"/>
  <polygon class="st0" points="473.4 91.3 504.4 91.3 504.4 129.6 469.1 91.3 473.4 91.3"/>
  <polygon class="st0" points="332.5 91.3 332.5 122.8 339.7 122.8 361.9 104.1 368.2 91.3 332.5 91.3"/>
  <polygon class="st0" points="331.1 247.5 331.1 282.6 365.9 281.2 335.5 245.5 331.1 247.5"/>
  <polygon class="st0" points="504.4 282.6 472.4 280 472.4 256.8 501 242.7 504.4 282.6"/>
  <path class="st2" d="M889,500.9"/>
</svg>