<?xml version="1.0" encoding="UTF-8"?>
<svg id="Layer_1" xmlns="http://www.w3.org/2000/svg" version="1.1" viewBox="0 0 834.2 294">
  <!-- Generator: Adobe Illustrator 29.8.2, SVG Export Plug-In . SVG Version: 2.1.1 Build 3)  -->
  <defs>
    <style>
      .st0, .st1, .st2 {
        fill: #231f20;
      }

      .st0, .st3, .st2 {
        isolation: isolate;
      }

      .st0, .st2 {
        font-family: MonumentGrotesk-Regular, 'Monument Grotesk';
        font-size: 412.7px;
      }

      .st2 {
        letter-spacing: 0em;
      }

      .st4 {
        fill: none;
        stroke: #231f20;
        stroke-miterlimit: 10;
        stroke-width: 16.2px;
      }
    </style>
  </defs>
  <text class="st0" transform="translate(-14.1 289)"><tspan x="0" y="0">s</tspan></text>
  <text class="st2" transform="translate(182.8 289)"><tspan x="0" y="0">t</tspan></text>
  <g class="st3">
    <path class="st1" d="M516,188.2c0,4.4-.1,7.3-.4,8.7h-156.6c.5,22.8,5.6,39.8,15.3,50.8,9.7,11,24.1,16.5,43.3,16.5s31.2-3.8,40.8-11.3c9.6-7.5,15.7-19.1,18.2-34.9l35.9,2.8c-4.7,24-15,42.2-31,54.6-16,12.4-37.1,18.5-63.5,18.5s-56.8-10.1-74.2-30.2c-16.8-18.4-21.7-44.1-21.7-78s5.2-57.4,22.5-77.2c18.7-20.7,43-31,72.9-31s32.4,3.6,46.8,10.7c14.4,7.1,25.7,17.2,33.8,30.2,11.8,18.9,17.7,42.2,17.7,69.7ZM369.6,130.2c-6,10.6-9.3,22.8-9.9,36.7h117.9c-.3-6-1.4-12.5-3.3-19.4-1.9-6.9-4.5-12.7-7.8-17.2-9.9-14.9-26.1-22.4-48.4-22.4s-21.2,2-29.6,5.9c-8.5,4-14.8,9.4-18.9,16.4Z"/>
    <path class="st1" d="M742.9,0v289h-37.3v-30.2c-15.3,23.5-37,35.3-65.1,35.3s-50.9-9.8-68.5-29.3c-17.6-19.5-26.4-45.8-26.4-78.9s8.6-58.5,25.9-78.4c17.3-19.9,39.9-29.8,67.8-29.8s50.8,10.6,66.3,31.8V0h37.3ZM707.1,186.2c0-23.4-4.2-42.4-12.5-57-8.2-14.5-23.7-21.8-46.5-21.8s-37.6,6.4-47.2,19.1c-9.5,12.8-14.3,32.5-14.3,59.2s4.5,46.4,13.6,59.3c9.1,13,24.8,19.4,47.1,19.4s34.7-6.6,44.7-19.8c10.1-13.2,15.1-32.7,15.1-58.5Z"/>
    <path class="st1" d="M797.1,0h37.1v43.7h-37.1V0ZM797.1,82.6h37.1v206.3h-37.1V82.6Z"/>
  </g>
  <polyline class="st4" points="476.8 225.9 510 228.5 510 286 327.1 286 333.7 85.8 510 85.8 510 196.7"/>
  <polygon class="st1" points="473.4 91.3 504.4 91.3 504.4 129.6 469.1 91.3 473.4 91.3"/>
  <polygon class="st1" points="332.5 91.3 332.5 122.8 339.7 122.8 361.9 104.1 368.2 91.3 332.5 91.3"/>
  <polygon class="st1" points="331.1 247.5 331.1 282.6 365.9 281.2 335.5 245.5 331.1 247.5"/>
  <polygon class="st1" points="504.4 282.6 472.4 280 472.4 256.8 501 242.7 504.4 282.6"/>
</svg>